HIERARCHY
ROOT Hips
{
    OFFSET   0.000000   0.000000   0.000000
    CHANNELS 6 Xposition Yposition Zposition Zrotation Xrotation Yrotation
    JOINT Chest
    {
        OFFSET   0.000000   8.007230   0.000000
        CHANNELS 3 Zrotation Xrotation Yrotation
        JOINT Chest2
        {
            OFFSET   0.000000  22.077100   0.000000
            CHANNELS 3 Zrotation Xrotation Yrotation
            JOINT Neck
            {
                OFFSET   0.000000  23.254800  -0.000021
                CHANNELS 3 Zrotation Xrotation Yrotation
                JOINT Head
                {
                    OFFSET   0.000000  14.370000   1.956610
                    CHANNELS 3 Zrotation Xrotation Yrotation
                    End Site
                    {
                        OFFSET   0.000000  19.566000   0.000000
                    }
                }
            }
            JOINT LeftCollar
            {
                OFFSET   3.911900  19.017000  -0.467063
                CHANNELS 3 Zrotation Xrotation Yrotation
                JOINT LeftShoulder
                {
                    OFFSET  10.383700   0.000000   0.000000
                    CHANNELS 3 Zrotation Xrotation Yrotation
                    JOINT LeftElbow
                    {
                        OFFSET  26.662100   0.001529   0.000325
                        CHANNELS 3 Zrotation Xrotation Yrotation
                        JOINT LeftWrist
                        {
                            OFFSET  28.869000  -0.000011  -0.000096
                            CHANNELS 3 Zrotation Xrotation Yrotation
                            JOINT LeftFinger0
                            {
                                OFFSET   2.044650  -2.323460   3.252850
                                CHANNELS 3 Zrotation Xrotation Yrotation
                                JOINT LeftFinger01
                                {
                                    OFFSET   3.088130   0.000000   0.000000
                                    CHANNELS 3 Zrotation Xrotation Yrotation
                                    JOINT LeftFinger02
                                    {
                                        OFFSET   2.639460   0.000000   0.000000
                                        CHANNELS 3 Zrotation Xrotation Yrotation
                                        End Site
                                        {
                                            OFFSET   2.582190   0.000000   0.000000
                                        }
                                    }
                                }
                            }
                            JOINT LeftFinger1
                            {
                                OFFSET   8.364480   0.000000   3.252850
                                CHANNELS 3 Zrotation Xrotation Yrotation
                                JOINT LeftFinger11
                                {
                                    OFFSET   4.646930   0.000000   0.000000
                                    CHANNELS 3 Zrotation Xrotation Yrotation
                                    JOINT LeftFinger12
                                    {
                                        OFFSET   2.323460   0.000000   0.000000
                                        CHANNELS 3 Zrotation Xrotation Yrotation
                                        End Site
                                        {
                                            OFFSET   2.273050   0.000000   0.000000
                                        }
                                    }
                                }
                            }
                            JOINT LeftFinger2
                            {
                                OFFSET   8.364480   0.000016   1.078090
                                CHANNELS 3 Zrotation Xrotation Yrotation
                                JOINT LeftFinger21
                                {
                                    OFFSET   5.111620   0.000000   0.000000
                                    CHANNELS 3 Zrotation Xrotation Yrotation
                                    JOINT LeftFinger22
                                    {
                                        OFFSET   2.788160   0.000017   0.000000
                                        CHANNELS 3 Zrotation Xrotation Yrotation
                                        End Site
                                        {
                                            OFFSET   2.727660   0.000000   0.000000
                                        }
                                    }
                                }
                            }
                            JOINT LeftFinger3
                            {
                                OFFSET   7.899780   0.000015  -1.078090
                                CHANNELS 3 Zrotation Xrotation Yrotation
                                JOINT LeftFinger31
                                {
                                    OFFSET   4.646920   0.000000   0.000000
                                    CHANNELS 3 Zrotation Xrotation Yrotation
                                    JOINT LeftFinger32
                                    {
                                        OFFSET   2.323470   0.000000   0.000000
                                        CHANNELS 3 Zrotation Xrotation Yrotation
                                        End Site
                                        {
                                            OFFSET   2.273050   0.000000   0.000000
                                        }
                                    }
                                }
                            }
                            JOINT LeftFinger4
                            {
                                OFFSET   7.435090   0.000000  -3.252850
                                CHANNELS 3 Zrotation Xrotation Yrotation
                                JOINT LeftFinger41
                                {
                                    OFFSET   3.717550   0.000000   0.000000
                                    CHANNELS 3 Zrotation Xrotation Yrotation
                                    JOINT LeftFinger42
                                    {
                                        OFFSET   1.858760   0.000000   0.000000
                                        CHANNELS 3 Zrotation Xrotation Yrotation
                                        End Site
                                        {
                                            OFFSET   1.818440   0.000000   0.000000
                                        }
                                    }
                                }
                            }
                        }
                    }
                }
            }
            JOINT RightCollar
            {
                OFFSET  -3.911900  19.017000  -0.467062
                CHANNELS 3 Zrotation Xrotation Yrotation
                JOINT RightShoulder
                {
                    OFFSET -10.383700   0.000015   0.000000
                    CHANNELS 3 Zrotation Xrotation Yrotation
                    JOINT RightElbow
                    {
                        OFFSET -26.662100   0.001341   0.000385
                        CHANNELS 3 Zrotation Xrotation Yrotation
                        JOINT RightWrist
                        {
                            OFFSET -28.869000   0.000025  -0.000080
                            CHANNELS 3 Zrotation Xrotation Yrotation
                            JOINT RightFinger0
                            {
                                OFFSET  -2.044650  -2.323490   3.252850
                                CHANNELS 3 Zrotation Xrotation Yrotation
                                JOINT RightFinger01
                                {
                                    OFFSET  -3.088130   0.000000   0.000000
                                    CHANNELS 3 Zrotation Xrotation Yrotation
                                    JOINT RightFinger02
                                    {
                                        OFFSET  -2.639460   0.000000   0.000000
                                        CHANNELS 3 Zrotation Xrotation Yrotation
                                        End Site
                                        {
                                            OFFSET  -2.582190   0.000000   0.000000
                                        }
                                    }
                                }
                            }
                            JOINT RightFinger1
                            {
                                OFFSET  -8.364480   0.000000   3.252850
                                CHANNELS 3 Zrotation Xrotation Yrotation
                                JOINT RightFinger11
                                {
                                    OFFSET  -4.646930   0.000000   0.000000
                                    CHANNELS 3 Zrotation Xrotation Yrotation
                                    JOINT RightFinger12
                                    {
                                        OFFSET  -2.323470   0.000000   0.000000
                                        CHANNELS 3 Zrotation Xrotation Yrotation
                                        End Site
                                        {
                                            OFFSET  -2.273050   0.000000   0.000000
                                        }
                                    }
                                }
                            }
                            JOINT RightFinger2
                            {
                                OFFSET  -8.364480   0.000000   1.078090
                                CHANNELS 3 Zrotation Xrotation Yrotation
                                JOINT RightFinger21
                                {
                                    OFFSET  -5.111610   0.000000   0.000000
                                    CHANNELS 3 Zrotation Xrotation Yrotation
                                    JOINT RightFinger22
                                    {
                                        OFFSET  -2.788160   0.000000   0.000000
                                        CHANNELS 3 Zrotation Xrotation Yrotation
                                        End Site
                                        {
                                            OFFSET  -2.727660   0.000000   0.000000
                                        }
                                    }
                                }
                            }
                            JOINT RightFinger3
                            {
                                OFFSET  -7.899780   0.000000  -1.078090
                                CHANNELS 3 Zrotation Xrotation Yrotation
                                JOINT RightFinger31
                                {
                                    OFFSET  -4.646920   0.000000   0.000000
                                    CHANNELS 3 Zrotation Xrotation Yrotation
                                    JOINT RightFinger32
                                    {
                                        OFFSET  -2.323470   0.000000   0.000000
                                        CHANNELS 3 Zrotation Xrotation Yrotation
                                        End Site
                                        {
                                            OFFSET  -2.273050   0.000000   0.000000
                                        }
                                    }
                                }
                            }
                            JOINT RightFinger4
                            {
                                OFFSET  -7.435090   0.000000  -3.252850
                                CHANNELS 3 Zrotation Xrotation Yrotation
                                JOINT RightFinger41
                                {
                                    OFFSET  -3.717550   0.000000   0.000000
                                    CHANNELS 3 Zrotation Xrotation Yrotation
                                    JOINT RightFinger42
                                    {
                                        OFFSET  -1.858770   0.000000   0.000000
                                        CHANNELS 3 Zrotation Xrotation Yrotation
                                        End Site
                                        {
                                            OFFSET  -1.818440   0.000000   0.000000
                                        }
                                    }
                                }
                            }
                        }
                    }
                }
            }
        }
    }
    JOINT LeftHip
    {
        OFFSET   9.783010   0.000000   0.000000
        CHANNELS 3 Zrotation Xrotation Yrotation
        JOINT LeftKnee
        {
            OFFSET   0.000070 -41.789100   0.000028
            CHANNELS 3 Zrotation Xrotation Yrotation
            JOINT LeftAnkle
            {
                OFFSET   0.000087 -41.133200  -0.000100
                CHANNELS 3 Zrotation Xrotation Yrotation
                JOINT LeftToe
                {
                    OFFSET   0.000000  -6.358960  14.674500
                    CHANNELS 3 Zrotation Xrotation Yrotation
                    End Site
                    {
                        OFFSET   0.000000   0.000000   3.913200
                    }
                }
            }
        }
    }
    JOINT RightHip
    {
        OFFSET  -9.783020   0.000000   0.000000
        CHANNELS 3 Zrotation Xrotation Yrotation
        JOINT RightKnee
        {
            OFFSET   0.000044 -41.789100  -0.000870
            CHANNELS 3 Zrotation Xrotation Yrotation
            JOINT RightAnkle
            {
                OFFSET  -0.000090 -41.133200  -0.000245
                CHANNELS 3 Zrotation Xrotation Yrotation
                JOINT RightToe
                {
                    OFFSET   0.000000  -6.358960  14.674500
                    CHANNELS 3 Zrotation Xrotation Yrotation
                    End Site
                    {
                        OFFSET   0.000000   0.000000   3.913200
                    }
                }
            }
        }
    }
}
MOTION
Frames: 5
Frame Time:   0.016667
 -1.395290  89.413900  -1.398110  -2.762900 -16.364300  -6.731800   0.913989  11.844200  -2.129620   2.366980  23.642700  -4.609630  -0.341371   0.084561  -0.005420  -0.557560   0.172163   9.952330  -7.530560  -1.065250   8.664490 -66.106900 -15.721400 -40.211600   9.162530  -2.015980 -54.805400  -9.559450 -32.374700 -21.212800  42.314900  22.861900 -46.790400 -19.289900  -0.002787  -0.000894  -4.644940  -0.000286   0.004110 -13.639200  -0.176770   0.726346 -11.160500  -0.002232  -0.000780  -7.812350  -0.001039  -0.000794 -24.094500  -2.728710   6.074860 -24.239800  -0.004458   0.000894 -16.143700  -0.002976   0.000956  -8.311720  -0.967301   6.587130  -8.367640   0.000673  -0.000000  -5.572850   0.000882   0.004514  -9.229990  -1.320710   8.067700 -13.985400  -0.000519  -0.000446  -9.314260   0.001673   0.002523   7.607810   0.069724   9.886240  59.381700 -28.513200  35.069500 -15.071800  -9.261960  52.955900  -7.998490 -35.982800  20.670900 -38.971600  25.656300  65.753500   0.762611   0.001751  -0.000245  -4.618690   0.002028  -0.002506  22.356700  -0.473385  -1.151300  18.293400   0.000307  -0.001580  12.805400  -0.001166   0.000516  24.124200  -0.507985  -1.136580  24.126300  -0.001730   0.000398  16.068100   0.002392  -0.000827  25.183300  -1.463530  -3.111530  25.220200   0.002785   0.000377  16.796600  -0.001474  -0.000803  20.624500  -1.211430  -3.218050  30.983800  -0.000634   0.001615  20.635200  -0.001035   0.001333   5.099510  16.350100   1.059460  -0.314139   5.257520  18.728300  -3.859440  -4.308830   1.627470   0.000000   0.000000   0.000000   0.655729  15.553300  -4.869850  -0.820205   4.203300  -7.951810   1.003880  -2.825510   6.770120   0.000000   0.000000   0.000000
 -1.431490  89.408100  -1.348620  -2.778540 -16.352800  -6.791740   0.925798  11.827900  -2.117430   2.387150  23.609800  -4.585080  -0.336274  -0.064913  -0.005289  -0.559198  -0.131063  11.016500  -7.553900  -1.105420   8.578360 -66.100100 -15.719500 -40.218200   9.294420  -1.895410 -54.604400  -9.622870 -32.352800 -21.208300  42.338000  22.504400 -46.849300 -18.992300  -0.002810  -0.000889  -4.496160  -0.000325   0.004096 -13.650900  -0.172215   0.706378 -11.169900  -0.002286  -0.000786  -7.818900  -0.001059  -0.000807 -24.115200  -2.683120   5.968830 -24.255300  -0.004423   0.000866 -16.154000  -0.002928   0.000946  -8.321100  -0.951051   6.472960  -8.373840   0.000644  -0.000000  -5.576980   0.000854   0.004514  -9.282850  -1.298320   7.892880 -14.059100  -0.000531  -0.000459  -9.363320   0.001868   0.002449   7.673230  -0.027936   9.924040  58.945000 -28.416600  35.009700 -14.817200  -9.020830  52.275100  -7.920670 -36.343700  20.405500 -38.850400  25.041100  65.091200   0.747012   0.001726  -0.000247  -4.626490   0.002000  -0.002498  22.055900  -0.468906  -1.142550  18.046300   0.000305  -0.001580  12.632400  -0.001193   0.000527  23.749900  -0.503020  -1.128060  23.750800  -0.001692   0.000402  15.817900   0.002370  -0.000801  24.887200  -1.550920  -3.354270  24.929800   0.002760   0.000394  16.603200  -0.001442  -0.000787  20.345000  -1.280320  -3.467310  30.571400  -0.000616   0.001610  20.360600  -0.001014   0.001322   5.127210  16.399600   1.045530  -0.331618   5.233790  18.776800  -3.874390  -4.334560   1.643580   0.000000   0.000000  -0.000000   0.641241  15.596900  -4.909390  -0.780435   4.153120  -7.957600   0.986801  -2.818760   6.873950  -0.000000   0.000000   0.000000
 -1.469460  89.405900  -1.298870  -2.793550 -16.346900  -6.848350   0.930458  11.820200  -2.097160   2.392400  23.594800  -4.545090  -0.319685  -0.198437  -0.005174  -0.524645  -0.402479  11.889600  -7.573630  -1.175650   8.521500 -66.084700 -15.711400 -40.242500   9.391100  -1.804930 -54.302300  -9.702060 -32.348600 -21.214000  42.429100  22.132100 -47.142800 -18.466200  -0.002835  -0.000876  -4.233100  -0.000365   0.004081 -13.710200  -0.159782   0.652979 -11.218000  -0.002341  -0.000793  -7.852570  -0.001078  -0.000818 -24.193200  -2.600260   5.766530 -24.324100  -0.004391   0.000842 -16.199800  -0.002879   0.000935  -8.366850  -0.923653   6.256300  -8.417220   0.000615  -0.000000  -5.605880   0.000824   0.004514  -9.390420  -1.255580   7.555250 -14.209900  -0.000545  -0.000471  -9.463780   0.002059   0.002378   7.769720  -0.149005  10.005400  58.439300 -28.288500  34.872000 -14.622100  -8.899580  51.764500  -7.706940 -36.977500  20.330000 -38.841100  24.731100  64.759300   0.637820   0.001703  -0.000249  -4.681090   0.001972  -0.002490  21.861000  -0.437547  -1.081260  17.885900   0.000300  -0.001578  12.520100  -0.001217   0.000534  23.504700  -0.468264  -1.068390  23.504400  -0.001654   0.000405  15.653900   0.002346  -0.000774  24.693000  -1.563400  -3.389740  24.736200   0.002736   0.000407  16.474300  -0.001412  -0.000771  20.162200  -1.290160  -3.502920  30.297800  -0.000597   0.001601  20.178400  -0.000993   0.001315   5.143540  16.455100   1.019140  -0.342129   5.211130  18.831100  -3.888950  -4.362430   1.663000   0.000000   0.000000   0.000000   0.629124  15.643200  -4.970800  -0.747124   4.107970  -7.963690   0.973851  -2.815510   6.986580   0.000000   0.000000   0.000000
 -1.506810  89.406100  -1.251420  -2.804370 -16.338500  -6.893440   0.934095  11.828400  -2.076710   2.396190  23.611500  -4.504720  -0.282537  -0.348201  -0.005064  -0.465033  -0.706066  12.630900  -7.605910  -1.256280   8.521700 -65.928600 -15.542200 -40.271800   9.715920  -1.844240 -54.087900  -9.970840 -32.509700 -21.494600  42.755300  21.797100 -47.736600 -17.491000  -0.002876  -0.000865  -3.745520  -0.000396   0.004059 -13.860700  -0.132820   0.539221 -11.340600  -0.002380  -0.000812  -7.938420  -0.001117  -0.000828 -24.402400  -2.496840   5.487460 -24.521500  -0.004368   0.000823 -16.331200  -0.002839   0.000921  -8.517390  -0.895335   5.960540  -8.564610   0.000586  -0.000000  -5.704060   0.000804   0.004503  -9.555250  -1.196630   7.078810 -14.444900  -0.000574  -0.000475  -9.620300   0.002243   0.002312   7.836640  -0.233311  10.118500  58.096800 -28.226100  34.643500 -14.492300  -9.017390  51.754200  -7.560280 -37.734300  20.484600 -38.899100  25.023300  65.059300   0.154700   0.001663  -0.000247  -4.922660   0.001947  -0.002497  21.882800  -0.241608  -0.605268  17.901800   0.000284  -0.001577  12.531300  -0.001230   0.000542  23.537500  -0.258106  -0.598414  23.534700  -0.001604   0.000422  15.674100   0.002313  -0.000752  24.722900  -1.389990  -3.013610  24.756700   0.002713   0.000408  16.487900  -0.001378  -0.000753  20.196200  -1.147710  -3.114080  30.337000  -0.000584   0.001588  20.204500  -0.000966   0.001306   5.145890  16.504200   0.983731  -0.340925   5.195370  18.884300  -3.902260  -4.394950   1.685800  -0.000000   0.000000   0.000000   0.618755  15.720900  -5.013270  -0.725591   4.036010  -7.979220   0.964779  -2.810020   7.090770   0.000000   0.000000  -0.000000
 -1.541980  89.406300  -1.203110  -2.807720 -16.320700  -6.915090   0.940741  11.836500  -2.064410   2.407310  23.627800  -4.480410  -0.249508  -0.516308  -0.004959  -0.408482  -1.046900  13.263100  -7.646440  -1.306770   8.521860 -65.694200 -15.280500 -40.260900  10.294400  -1.931480 -53.978500 -10.342100 -32.797900 -21.922000  42.998700  21.558800 -48.132500 -16.824100  -0.002914  -0.000824  -3.412050  -0.000426   0.004037 -14.019600  -0.113735   0.458894 -11.470300  -0.002418  -0.000831  -8.029210  -0.001159  -0.000841 -24.553700  -2.430600   5.304690 -24.665600  -0.004345   0.000803 -16.427200  -0.002800   0.000908  -8.631420  -0.878139   5.767270  -8.674810   0.000553  -0.000000  -5.777470   0.000789   0.004487  -9.667540  -1.157940   6.765190 -14.602800  -0.000603  -0.000477  -9.725430   0.002428   0.002246   7.883220  -0.274532  10.234600  57.907400 -28.219000  34.428800 -14.198600  -9.292160  51.805500  -7.429210 -38.434300  20.681900 -38.976500  25.437800  65.512100  -0.397330   0.001614  -0.000242  -5.198680   0.001922  -0.002504  21.926900   0.006372   0.013220  17.939400   0.000273  -0.001575  12.557600  -0.001242   0.000552  23.592700   0.006740   0.013114  23.591800  -0.001552   0.000440  15.712200   0.002275  -0.000732  24.772500  -1.150540  -2.493200  24.796900   0.002685   0.000409  16.514700  -0.001342  -0.000735  20.261100  -0.951412  -2.575990  30.422600  -0.000569   0.001575  20.261500  -0.000940   0.001294   5.145200  16.530800   0.960457  -0.335431   5.188270  18.914100  -3.915940  -4.430380   1.699620  -0.000000   0.000000  -0.000000   0.618099  15.777200  -5.049480  -0.709567   3.966720  -7.989750   0.952329  -2.806860   7.147760  -0.000000   0.000000   0.000000
